<svg xmlns="http://www.w3.org/2000/svg" xmlns:xlink="http://www.w3.org/1999/xlink" width="3787" zoomAndPan="magnify" viewBox="0 0 2840.25 1067.250007" height="1423" preserveAspectRatio="xMidYMid meet" version="1.0"><defs><g/><clipPath id="b4b852e3ee"><path d="M 1.183594 224.6875 L 662.214844 224.6875 L 662.214844 842.253906 L 1.183594 842.253906 Z M 1.183594 224.6875 " clip-rule="nonzero"/></clipPath><clipPath id="db32944032"><path d="M 76.140625 224.6875 L 587.253906 224.6875 C 628.65625 224.6875 662.214844 258.257812 662.214844 299.671875 L 662.214844 767.269531 C 662.214844 808.683594 628.65625 842.253906 587.253906 842.253906 L 76.140625 842.253906 C 34.742188 842.253906 1.183594 808.683594 1.183594 767.269531 L 1.183594 299.671875 C 1.183594 258.257812 34.742188 224.6875 76.140625 224.6875 Z M 76.140625 224.6875 " clip-rule="nonzero"/></clipPath><clipPath id="617b62c6e6"><path d="M 25.855469 239.503906 L 637.425781 239.503906 L 637.425781 405.554688 L 25.855469 405.554688 Z M 25.855469 239.503906 " clip-rule="nonzero"/></clipPath><clipPath id="8e95fc69a8"><path d="M 63.328125 239.503906 L 599.949219 239.503906 C 620.648438 239.503906 637.425781 256.28125 637.425781 276.976562 L 637.425781 368.082031 C 637.425781 388.777344 620.648438 405.554688 599.949219 405.554688 L 63.328125 405.554688 C 42.632812 405.554688 25.855469 388.777344 25.855469 368.082031 L 25.855469 276.976562 C 25.855469 256.28125 42.632812 239.503906 63.328125 239.503906 Z M 63.328125 239.503906 " clip-rule="nonzero"/></clipPath><clipPath id="1de01ed62b"><path d="M 73.03125 257.164062 L 146.488281 257.164062 L 146.488281 330.621094 L 73.03125 330.621094 Z M 73.03125 257.164062 " clip-rule="nonzero"/></clipPath><clipPath id="2a3321d116"><path d="M 109.761719 257.164062 C 89.476562 257.164062 73.03125 273.609375 73.03125 293.894531 C 73.03125 314.175781 89.476562 330.621094 109.761719 330.621094 C 130.042969 330.621094 146.488281 314.175781 146.488281 293.894531 C 146.488281 273.609375 130.042969 257.164062 109.761719 257.164062 Z M 109.761719 257.164062 " clip-rule="nonzero"/></clipPath><clipPath id="6fd5242cbf"><path d="M 507.347656 257.164062 L 580.804688 257.164062 L 580.804688 330.621094 L 507.347656 330.621094 Z M 507.347656 257.164062 " clip-rule="nonzero"/></clipPath><clipPath id="74ed02efc1"><path d="M 544.078125 257.164062 C 523.792969 257.164062 507.347656 273.609375 507.347656 293.894531 C 507.347656 314.175781 523.792969 330.621094 544.078125 330.621094 C 564.359375 330.621094 580.804688 314.175781 580.804688 293.894531 C 580.804688 273.609375 564.359375 257.164062 544.078125 257.164062 Z M 544.078125 257.164062 " clip-rule="nonzero"/></clipPath><clipPath id="abe36d4507"><path d="M 48 549 L 372 549 L 372 810.601562 L 48 810.601562 Z M 48 549 " clip-rule="nonzero"/></clipPath><clipPath id="cd1f99705a"><path d="M 318 618 L 571 618 L 571 810.601562 L 318 810.601562 Z M 318 618 " clip-rule="nonzero"/></clipPath><clipPath id="ba7680d55d"><path d="M 526.363281 173.878906 L 561.789062 173.878906 L 561.789062 305.132812 L 526.363281 305.132812 Z M 526.363281 173.878906 " clip-rule="nonzero"/></clipPath><clipPath id="c74b91f2e4"><path d="M 561.789062 191.589844 L 561.789062 287.417969 C 561.789062 297.199219 553.859375 305.132812 544.074219 305.132812 C 534.292969 305.132812 526.363281 297.199219 526.363281 287.417969 L 526.363281 191.589844 C 526.363281 181.808594 534.292969 173.878906 544.074219 173.878906 C 553.859375 173.878906 561.789062 181.808594 561.789062 191.589844 Z M 561.789062 191.589844 " clip-rule="nonzero"/></clipPath><clipPath id="029583d4ff"><path d="M 92.042969 173.878906 L 127.472656 173.878906 L 127.472656 305.132812 L 92.042969 305.132812 Z M 92.042969 173.878906 " clip-rule="nonzero"/></clipPath><clipPath id="73231f3da5"><path d="M 127.472656 191.589844 L 127.472656 287.417969 C 127.472656 297.199219 119.539062 305.132812 109.757812 305.132812 C 99.976562 305.132812 92.042969 297.199219 92.042969 287.417969 L 92.042969 191.589844 C 92.042969 181.808594 99.976562 173.878906 109.757812 173.878906 C 119.539062 173.878906 127.472656 181.808594 127.472656 191.589844 Z M 127.472656 191.589844 " clip-rule="nonzero"/></clipPath></defs><g clip-path="url(#b4b852e3ee)"><g clip-path="url(#db32944032)"><path stroke-linecap="butt" transform="matrix(0.749619, 0, 0, 0.749857, 1.181803, 224.687872)" fill="none" stroke-linejoin="miter" d="M 99.995841 -0.000496623 L 781.826228 -0.000496623 C 837.057381 -0.000496623 881.824891 44.768445 881.824891 99.997712 L 881.824891 723.579994 C 881.824891 778.809261 837.057381 823.578203 781.826228 823.578203 L 99.995841 823.578203 C 44.769899 823.578203 0.00238845 778.809261 0.00238845 723.579994 L 0.00238845 99.997712 C 0.00238845 44.768445 44.769899 -0.000496623 99.995841 -0.000496623 Z M 99.995841 -0.000496623 " stroke="#ff5400" stroke-width="140" stroke-opacity="1" stroke-miterlimit="4"/></g></g><g clip-path="url(#617b62c6e6)"><g clip-path="url(#8e95fc69a8)"><path fill="#ff5400" d="M 25.855469 239.503906 L 637.425781 239.503906 L 637.425781 405.554688 L 25.855469 405.554688 Z M 25.855469 239.503906 " fill-opacity="1" fill-rule="nonzero"/></g></g><g clip-path="url(#1de01ed62b)"><g clip-path="url(#2a3321d116)"><path fill="#ffffff" d="M 73.03125 257.164062 L 146.488281 257.164062 L 146.488281 330.621094 L 73.03125 330.621094 Z M 73.03125 257.164062 " fill-opacity="1" fill-rule="nonzero"/></g></g><g clip-path="url(#6fd5242cbf)"><g clip-path="url(#74ed02efc1)"><path fill="#ffffff" d="M 507.347656 257.164062 L 580.804688 257.164062 L 580.804688 330.621094 L 507.347656 330.621094 Z M 507.347656 257.164062 " fill-opacity="1" fill-rule="nonzero"/></g></g><path fill="#a63700" d="M 291.808594 492.171875 C 302.113281 477.132812 318.882812 477.308594 329.015625 492.171875 L 501.597656 749.398438 C 511.90625 764.613281 505.265625 777.027344 486.574219 777.027344 L 134.246094 777.027344 C 115.554688 777.027344 109.09375 764.4375 119.222656 749.398438 Z M 291.808594 492.171875 " fill-opacity="1" fill-rule="evenodd"/><g clip-path="url(#abe36d4507)"><path fill="#ff5400" d="M 191.714844 561.417969 C 201.671875 545.679688 217.742188 545.332031 227.875 561.417969 L 366.570312 781.925781 C 376.703125 797.664062 369.714844 810.601562 351.199219 810.601562 L 68.394531 810.601562 C 49.875 810.601562 42.890625 798.011719 52.847656 781.925781 Z M 191.714844 561.417969 " fill-opacity="1" fill-rule="evenodd"/></g><g clip-path="url(#cd1f99705a)"><path fill="#ff5400" d="M 425.613281 630.140625 C 436.09375 614.753906 452.863281 614.402344 463.34375 630.140625 L 565.707031 782.625 C 576.011719 798.011719 569.546875 810.601562 551.382812 810.601562 L 337.75 810.601562 C 319.40625 810.601562 312.945312 798.1875 323.425781 782.625 Z M 425.613281 630.140625 " fill-opacity="1" fill-rule="evenodd"/></g><g clip-path="url(#ba7680d55d)"><g clip-path="url(#c74b91f2e4)"><path fill="#a63700" d="M 561.789062 173.878906 L 561.789062 305.132812 L 526.363281 305.132812 L 526.363281 173.878906 Z M 561.789062 173.878906 " fill-opacity="1" fill-rule="nonzero"/></g></g><g clip-path="url(#029583d4ff)"><g clip-path="url(#73231f3da5)"><path fill="#a63700" d="M 127.472656 173.878906 L 127.472656 305.132812 L 92.042969 305.132812 L 92.042969 173.878906 Z M 127.472656 173.878906 " fill-opacity="1" fill-rule="nonzero"/></g></g><g fill="#000000" fill-opacity="1"><g transform="translate(804.616369, 723.891994)"><g><path d="M 369.765625 -88.921875 L 369.765625 0 L 198.4375 0 L 198.4375 -88.921875 L 221.21875 -88.921875 L 221.21875 -177.84375 C 221.21875 -189.769531 218.6875 -198.53125 213.625 -204.125 C 208.5625 -209.726562 200.96875 -212.53125 190.84375 -212.53125 C 169.15625 -212.53125 158.3125 -200.96875 158.3125 -177.84375 L 158.3125 -88.921875 L 181.09375 -88.921875 L 181.09375 0 L 9.765625 0 L 9.765625 -88.921875 L 33.609375 -88.921875 L 33.609375 -332.90625 L 9.765625 -332.90625 L 9.765625 -421.828125 L 158.3125 -421.828125 L 158.3125 -259.171875 C 171.6875 -275.796875 186.144531 -288.265625 201.6875 -296.578125 C 217.226562 -304.890625 235.300781 -309.046875 255.90625 -309.046875 C 285.90625 -309.046875 308.40625 -299.644531 323.40625 -280.84375 C 338.414062 -262.050781 345.921875 -236.207031 345.921875 -203.3125 L 345.921875 -88.921875 Z M 369.765625 -88.921875 "/></g></g></g><g fill="#000000" fill-opacity="1"><g transform="translate(1199.866329, 723.891994)"><g><path d="M 171.328125 7.59375 C 120.003906 7.59375 79.882812 -5.867188 50.96875 -32.796875 C 22.050781 -59.722656 7.59375 -99.035156 7.59375 -150.734375 C 7.59375 -202.421875 22.050781 -241.726562 50.96875 -268.65625 C 79.882812 -295.582031 120.003906 -309.046875 171.328125 -309.046875 C 222.296875 -309.046875 259.070312 -295.757812 281.65625 -269.1875 C 304.25 -242.625 315.546875 -209.644531 315.546875 -170.25 L 315.546875 -131.203125 L 139.890625 -131.203125 L 139.890625 -127.953125 C 139.890625 -114.578125 143.863281 -104.726562 151.8125 -98.40625 C 159.757812 -92.082031 172.953125 -88.921875 191.390625 -88.921875 C 213.441406 -88.921875 234.40625 -90.546875 254.28125 -93.796875 C 274.164062 -97.046875 291.515625 -101.203125 306.328125 -106.265625 L 306.328125 -19.515625 C 293.679688 -12.648438 275.15625 -6.414062 250.75 -0.8125 C 226.351562 4.789062 199.878906 7.59375 171.328125 7.59375 Z M 202.78125 -190.84375 L 202.78125 -197.359375 C 202.78125 -209.648438 200.15625 -218.503906 194.90625 -223.921875 C 189.664062 -229.347656 181.804688 -232.0625 171.328125 -232.0625 C 160.847656 -232.0625 152.988281 -229.257812 147.75 -223.65625 C 142.507812 -218.050781 139.890625 -209.285156 139.890625 -197.359375 L 139.890625 -190.84375 Z M 202.78125 -190.84375 "/></g></g></g><g fill="#000000" fill-opacity="1"><g transform="translate(1539.813714, 723.891994)"><g><path d="M 141.515625 7.59375 C 95.960938 7.59375 52.046875 0.363281 9.765625 -14.09375 L 9.765625 -94.34375 L 97.59375 -94.34375 L 97.59375 -88.921875 C 97.59375 -71.566406 108.617188 -62.890625 130.671875 -62.890625 C 150.179688 -62.890625 159.9375 -69.578125 159.9375 -82.953125 C 159.9375 -90.179688 157.132812 -95.601562 151.53125 -99.21875 C 145.9375 -102.832031 136.085938 -105.90625 121.984375 -108.4375 L 94.875 -113.3125 C 38.132812 -123.4375 9.765625 -155.609375 9.765625 -209.828125 C 9.765625 -241.273438 21.691406 -265.671875 45.546875 -283.015625 C 69.398438 -300.367188 101.566406 -309.046875 142.046875 -309.046875 C 187.234375 -309.046875 225.367188 -301.457031 256.453125 -286.28125 L 256.453125 -210.90625 L 174.046875 -210.90625 L 174.046875 -216.328125 C 174.046875 -223.554688 171.601562 -229.066406 166.71875 -232.859375 C 161.84375 -236.660156 154.707031 -238.5625 145.3125 -238.5625 C 127.238281 -238.5625 118.203125 -232.78125 118.203125 -221.21875 C 118.203125 -215.070312 120.726562 -210.367188 125.78125 -207.109375 C 130.84375 -203.859375 140.0625 -200.785156 153.4375 -197.890625 L 184.34375 -191.9375 C 216.507812 -185.789062 239.457031 -174.398438 253.1875 -157.765625 C 266.925781 -141.140625 273.796875 -119.816406 273.796875 -93.796875 C 273.796875 -60.898438 262.320312 -35.773438 239.375 -18.421875 C 216.425781 -1.078125 183.804688 7.59375 141.515625 7.59375 Z M 141.515625 7.59375 "/></g></g></g><g fill="#000000" fill-opacity="1"><g transform="translate(1839.097551, 723.891994)"><g><path d="M 143.671875 7.59375 C 105.359375 7.59375 76.53125 -1.710938 57.1875 -20.328125 C 37.851562 -38.941406 28.1875 -70.300781 28.1875 -114.40625 L 28.1875 -212.53125 L 4.34375 -212.53125 L 4.34375 -301.453125 C 18.070312 -301.453125 28.367188 -304.972656 35.234375 -312.015625 C 42.109375 -319.066406 45.546875 -328.738281 45.546875 -341.03125 L 45.546875 -365.4375 L 160.484375 -365.4375 L 160.484375 -301.453125 L 233.6875 -301.453125 L 233.6875 -212.53125 L 160.484375 -212.53125 L 160.484375 -123.625 C 160.484375 -111.6875 163.101562 -102.914062 168.34375 -97.3125 C 173.582031 -91.71875 181.445312 -88.921875 191.9375 -88.921875 C 205.664062 -88.921875 220.664062 -90.546875 236.9375 -93.796875 L 236.9375 -8.671875 C 226.8125 -4.691406 213.164062 -0.988281 196 2.4375 C 178.832031 5.875 161.390625 7.59375 143.671875 7.59375 Z M 143.671875 7.59375 "/></g></g></g><g fill="#000000" fill-opacity="1"><g transform="translate(2117.135099, 539.691451)"><g><path d="M 46.625 -67.5 C 35.96875 -67.5 27.113281 -70.976562 20.0625 -77.9375 C 13.007812 -84.894531 9.484375 -93.613281 9.484375 -104.09375 C 9.484375 -114.582031 13.007812 -123.347656 20.0625 -130.390625 C 27.113281 -137.441406 35.96875 -140.96875 46.625 -140.96875 C 57.289062 -140.96875 66.101562 -137.488281 73.0625 -130.53125 C 80.019531 -123.570312 83.5 -114.757812 83.5 -104.09375 C 83.5 -93.613281 79.972656 -84.894531 72.921875 -77.9375 C 65.878906 -70.976562 57.113281 -67.5 46.625 -67.5 Z M 46.625 -67.5 "/></g></g></g><g fill="#000000" fill-opacity="1"><g transform="translate(2219.065145, 539.691451)"><g><path d="M 278.6875 -44.453125 L 278.6875 0 L 193.015625 0 L 193.015625 -44.453125 L 204.40625 -44.453125 L 204.40625 -88.921875 C 204.40625 -94.878906 203.140625 -99.257812 200.609375 -102.0625 C 198.078125 -104.863281 194.28125 -106.265625 189.21875 -106.265625 C 178.375 -106.265625 172.953125 -100.484375 172.953125 -88.921875 L 172.953125 -44.453125 L 184.34375 -44.453125 L 184.34375 0 L 99.21875 0 L 99.21875 -44.453125 L 110.609375 -44.453125 L 110.609375 -88.921875 C 110.609375 -94.878906 109.34375 -99.257812 106.8125 -102.0625 C 104.28125 -104.863281 100.484375 -106.265625 95.421875 -106.265625 C 84.578125 -106.265625 79.15625 -100.484375 79.15625 -88.921875 L 79.15625 -44.453125 L 90.546875 -44.453125 L 90.546875 0 L 4.875 0 L 4.875 -44.453125 L 16.8125 -44.453125 L 16.8125 -106.265625 L 4.875 -106.265625 L 4.875 -150.734375 L 79.15625 -150.734375 L 79.15625 -129.578125 C 92.164062 -146.210938 108.429688 -154.53125 127.953125 -154.53125 C 138.984375 -154.53125 147.976562 -151.953125 154.9375 -146.796875 C 161.894531 -141.648438 166.816406 -134.375 169.703125 -124.96875 C 176.210938 -134.375 183.664062 -141.601562 192.0625 -146.65625 C 200.46875 -151.71875 210.363281 -154.25 221.75 -154.25 C 236.75 -154.25 248 -149.550781 255.5 -140.15625 C 263 -130.757812 266.75 -117.835938 266.75 -101.390625 L 266.75 -44.453125 Z M 278.6875 -44.453125 "/></g></g></g><g fill="#000000" fill-opacity="1"><g transform="translate(2510.487351, 539.691451)"><g><path d="M 85.671875 3.796875 C 60.003906 3.796875 39.941406 -2.929688 25.484375 -16.390625 C 11.023438 -29.859375 3.796875 -49.515625 3.796875 -75.359375 C 3.796875 -101.203125 11.023438 -120.859375 25.484375 -134.328125 C 39.941406 -147.796875 60.003906 -154.53125 85.671875 -154.53125 C 111.148438 -154.53125 129.535156 -147.882812 140.828125 -134.59375 C 152.128906 -121.3125 157.78125 -104.820312 157.78125 -85.125 L 157.78125 -65.609375 L 69.9375 -65.609375 L 69.9375 -63.984375 C 69.9375 -57.296875 71.925781 -52.367188 75.90625 -49.203125 C 79.882812 -46.035156 86.484375 -44.453125 95.703125 -44.453125 C 106.722656 -44.453125 117.203125 -45.265625 127.140625 -46.890625 C 137.078125 -48.523438 145.753906 -50.609375 153.171875 -53.140625 L 153.171875 -9.765625 C 146.847656 -6.328125 137.582031 -3.207031 125.375 -0.40625 C 113.175781 2.394531 99.941406 3.796875 85.671875 3.796875 Z M 101.390625 -95.421875 L 101.390625 -98.671875 C 101.390625 -104.816406 100.078125 -109.242188 97.453125 -111.953125 C 94.835938 -114.671875 90.910156 -116.03125 85.671875 -116.03125 C 80.421875 -116.03125 76.484375 -114.628906 73.859375 -111.828125 C 71.242188 -109.023438 69.9375 -104.640625 69.9375 -98.671875 L 69.9375 -95.421875 Z M 101.390625 -95.421875 "/></g></g></g></svg>