<svg xmlns="http://www.w3.org/2000/svg" xmlns:xlink="http://www.w3.org/1999/xlink" width="1857" zoomAndPan="magnify" viewBox="0 0 1392.75 1391.999937" height="1856" preserveAspectRatio="xMidYMid meet" version="1.0"><defs><clipPath id="a9785789f4"><path d="M 0.339844 0.125 L 1392.339844 0.125 L 1392.339844 1391.875 L 0.339844 1391.875 Z M 0.339844 0.125 " clip-rule="nonzero"/></clipPath><clipPath id="312d4c4633"><path d="M 696.339844 0.125 C 311.949219 0.125 0.339844 311.734375 0.339844 696.125 C 0.339844 1080.515625 311.949219 1392.125 696.339844 1392.125 C 1080.730469 1392.125 1392.339844 1080.515625 1392.339844 696.125 C 1392.339844 311.734375 1080.730469 0.125 696.339844 0.125 Z M 696.339844 0.125 " clip-rule="nonzero"/></clipPath><clipPath id="73cefaf94b"><path d="M 365.652344 412.699219 L 1027.152344 412.699219 L 1027.152344 1030.699219 L 365.652344 1030.699219 Z M 365.652344 412.699219 " clip-rule="nonzero"/></clipPath><clipPath id="f17febb49c"><path d="M 440.664062 412.699219 L 952.136719 412.699219 C 993.566406 412.699219 1027.148438 446.296875 1027.148438 487.738281 L 1027.148438 955.664062 C 1027.148438 997.105469 993.566406 1030.699219 952.136719 1030.699219 L 440.664062 1030.699219 C 399.234375 1030.699219 365.652344 997.105469 365.652344 955.664062 L 365.652344 487.738281 C 365.652344 446.296875 399.234375 412.699219 440.664062 412.699219 Z M 440.664062 412.699219 " clip-rule="nonzero"/></clipPath><clipPath id="4798010deb"><path d="M 390.339844 427.527344 L 1002.339844 427.527344 L 1002.339844 593.695312 L 390.339844 593.695312 Z M 390.339844 427.527344 " clip-rule="nonzero"/></clipPath><clipPath id="776d937580"><path d="M 427.839844 427.527344 L 964.839844 427.527344 C 985.550781 427.527344 1002.339844 444.316406 1002.339844 465.027344 L 1002.339844 556.195312 C 1002.339844 576.90625 985.550781 593.695312 964.839844 593.695312 L 427.839844 593.695312 C 407.128906 593.695312 390.339844 576.90625 390.339844 556.195312 L 390.339844 465.027344 C 390.339844 444.316406 407.128906 427.527344 427.839844 427.527344 Z M 427.839844 427.527344 " clip-rule="nonzero"/></clipPath><clipPath id="4e0613c3e4"><path d="M 437.550781 445.199219 L 511.058594 445.199219 L 511.058594 518.707031 L 437.550781 518.707031 Z M 437.550781 445.199219 " clip-rule="nonzero"/></clipPath><clipPath id="e6e7d8c605"><path d="M 474.304688 445.199219 C 454.007812 445.199219 437.550781 461.65625 437.550781 481.953125 C 437.550781 502.253906 454.007812 518.707031 474.304688 518.707031 C 494.605469 518.707031 511.058594 502.253906 511.058594 481.953125 C 511.058594 461.65625 494.605469 445.199219 474.304688 445.199219 Z M 474.304688 445.199219 " clip-rule="nonzero"/></clipPath><clipPath id="0ebda303ad"><path d="M 872.175781 445.199219 L 945.683594 445.199219 L 945.683594 518.707031 L 872.175781 518.707031 Z M 872.175781 445.199219 " clip-rule="nonzero"/></clipPath><clipPath id="57a9ab32c5"><path d="M 908.929688 445.199219 C 888.628906 445.199219 872.175781 461.65625 872.175781 481.953125 C 872.175781 502.253906 888.628906 518.707031 908.929688 518.707031 C 929.226562 518.707031 945.679688 502.253906 945.679688 481.953125 C 945.679688 461.65625 929.226562 445.199219 908.929688 445.199219 Z M 908.929688 445.199219 " clip-rule="nonzero"/></clipPath><clipPath id="04d033c175"><path d="M 412 735 L 728 735 L 728 990.777344 L 412 990.777344 Z M 412 735 " clip-rule="nonzero"/></clipPath><clipPath id="d1d21e2c76"><path d="M 676 803 L 923 803 L 923 990.777344 L 676 990.777344 Z M 676 803 " clip-rule="nonzero"/></clipPath><clipPath id="05c6b46d15"><path d="M 891.199219 361.855469 L 926.652344 361.855469 L 926.652344 493.199219 L 891.199219 493.199219 Z M 891.199219 361.855469 " clip-rule="nonzero"/></clipPath><clipPath id="8557495537"><path d="M 926.652344 379.582031 L 926.652344 475.472656 C 926.652344 485.265625 918.714844 493.199219 908.925781 493.199219 C 899.136719 493.199219 891.199219 485.265625 891.199219 475.472656 L 891.199219 379.582031 C 891.199219 369.789062 899.136719 361.855469 908.925781 361.855469 C 918.714844 361.855469 926.652344 369.789062 926.652344 379.582031 Z M 926.652344 379.582031 " clip-rule="nonzero"/></clipPath><clipPath id="b5ba77d6ef"><path d="M 456.578125 361.855469 L 492.03125 361.855469 L 492.03125 493.199219 L 456.578125 493.199219 Z M 456.578125 361.855469 " clip-rule="nonzero"/></clipPath><clipPath id="e57fae7cfd"><path d="M 492.03125 379.582031 L 492.03125 475.472656 C 492.03125 485.265625 484.09375 493.199219 474.304688 493.199219 C 464.515625 493.199219 456.578125 485.265625 456.578125 475.472656 L 456.578125 379.582031 C 456.578125 369.789062 464.515625 361.855469 474.304688 361.855469 C 484.09375 361.855469 492.03125 369.789062 492.03125 379.582031 Z M 492.03125 379.582031 " clip-rule="nonzero"/></clipPath></defs><g clip-path="url(#a9785789f4)"><g clip-path="url(#312d4c4633)"><path fill="#ff5400" d="M 0.339844 0.125 L 1392.339844 0.125 L 1392.339844 1392.125 L 0.339844 1392.125 Z M 0.339844 0.125 " fill-opacity="1" fill-rule="nonzero"/></g></g><g clip-path="url(#73cefaf94b)"><g clip-path="url(#f17febb49c)"><path stroke-linecap="butt" transform="matrix(0.750146, 0, 0, 0.750384, 365.651342, 412.700256)" fill="none" stroke-linejoin="miter" d="M 99.997466 -0.00138187 L 781.828085 -0.00138187 C 837.056901 -0.00138187 881.824215 44.77256 881.824215 99.99948 L 881.824215 723.58112 C 881.824215 778.808041 837.056901 823.576777 781.828085 823.576777 L 99.997466 823.576777 C 44.76865 823.576777 0.00133543 778.808041 0.00133543 723.58112 L 0.00133543 99.99948 C 0.00133543 44.77256 44.76865 -0.00138187 99.997466 -0.00138187 Z M 99.997466 -0.00138187 " stroke="#ffffff" stroke-width="140" stroke-opacity="1" stroke-miterlimit="4"/></g></g><g clip-path="url(#4798010deb)"><g clip-path="url(#776d937580)"><path fill="#ffffff" d="M 390.339844 427.527344 L 1002.339844 427.527344 L 1002.339844 593.695312 L 390.339844 593.695312 Z M 390.339844 427.527344 " fill-opacity="1" fill-rule="nonzero"/></g></g><g clip-path="url(#4e0613c3e4)"><g clip-path="url(#e6e7d8c605)"><path fill="#ff5400" d="M 437.550781 445.199219 L 511.058594 445.199219 L 511.058594 518.707031 L 437.550781 518.707031 Z M 437.550781 445.199219 " fill-opacity="1" fill-rule="nonzero"/></g></g><g clip-path="url(#0ebda303ad)"><g clip-path="url(#57a9ab32c5)"><path fill="#ff5400" d="M 872.175781 445.199219 L 945.679688 445.199219 L 945.679688 518.707031 L 872.175781 518.707031 Z M 872.175781 445.199219 " fill-opacity="1" fill-rule="nonzero"/></g></g><path fill="#ffbca7" d="M 650.160156 680.050781 C 660.230469 665.378906 676.613281 665.546875 686.511719 680.050781 L 855.117188 931.054688 C 865.183594 945.902344 858.699219 958.015625 840.441406 958.015625 L 496.230469 958.015625 C 477.972656 958.015625 471.65625 945.730469 481.554688 931.054688 Z M 650.160156 680.050781 " fill-opacity="1" fill-rule="evenodd"/><g clip-path="url(#04d033c175)"><path fill="#ffffff" d="M 552.378906 747.625 C 562.105469 732.265625 577.804688 731.925781 587.703125 747.625 L 723.203125 962.792969 C 733.097656 978.152344 726.273438 990.777344 708.183594 990.777344 L 431.894531 990.777344 C 413.804688 990.777344 406.980469 978.492188 416.707031 962.792969 Z M 552.378906 747.625 " fill-opacity="1" fill-rule="evenodd"/></g><g clip-path="url(#d1d21e2c76)"><path fill="#ffffff" d="M 780.882812 814.683594 C 791.121094 799.667969 807.503906 799.324219 817.742188 814.683594 L 917.746094 963.476562 C 927.816406 978.492188 921.5 990.777344 903.753906 990.777344 L 695.042969 990.777344 C 677.125 990.777344 670.8125 978.664062 681.050781 963.476562 Z M 780.882812 814.683594 " fill-opacity="1" fill-rule="evenodd"/></g><g clip-path="url(#05c6b46d15)"><g clip-path="url(#8557495537)"><path fill="#ffffff" d="M 926.652344 361.855469 L 926.652344 493.199219 L 891.199219 493.199219 L 891.199219 361.855469 Z M 926.652344 361.855469 " fill-opacity="1" fill-rule="nonzero"/></g></g><g clip-path="url(#b5ba77d6ef)"><g clip-path="url(#e57fae7cfd)"><path fill="#ffffff" d="M 492.03125 361.855469 L 492.03125 493.199219 L 456.578125 493.199219 L 456.578125 361.855469 Z M 492.03125 361.855469 " fill-opacity="1" fill-rule="nonzero"/></g></g></svg>